# xmcd
#
# Track frame offsets: 
#        150
#        13727
#        23465
#        37782
#        50497
#        62060
#        74050
#        84962
#        98112
#        110267
#        120542
#        132092
#        144810
#        157865
#        169797
#        182202
#        195007
#        207820
#        218262
#        230550
#        242577
#        254587
#
# Disc length: 3553 seconds
#
# Revision: 3
# Processed by: cddbd v1.5.2PL0 Copyright (c) Steve Scherf et al.
# Submitted via: ExactAudioCopy v0.95b4
#
DISCID=150ddf16
DTITLE=Lightnin' Hopkins - The Complete Aladdin Recordings [Disc 1]
DYEAR=1946
DGENRE=Blues
TTITLE0=Katie May
TTITLE1=Feel So Bad
TTITLE2=Blues (That Mean Old Twister)
TTITLE3=I Can't Stay Here In YourTown
TTITLE4=Can't Do Like You Used To
TTITLE5=West Coast Blues
TTITLE6=Short Haired Woman
TTITLE7=L.A. Blues
TTITLE8=Big Mama Jump
TTITLE9=Down Baby
TTITLE10=Let Me Play With Your Poodle
TTITLE11=Fast Mail Rambler
TTITLE12=Thinkin' And Worryin'
TTITLE13=Can't Get That Woman Off My Mind
TTITLE14=Woman Woman
TTITLE15=Picture On The Wall
TTITLE16=You're Not Goin' To Worry My Life Anymore
TTITLE17=You're Gonna Miss Me
TTITLE18=Sugar On My Mind
TTITLE19=Nightmare Blues
TTITLE20=Someday Baby
TTITLE21=Come Back Baby
EXTD=
EXTT0=
EXTT1=
EXTT2=
EXTT3=
EXTT4=
EXTT5=
EXTT6=
EXTT7=
EXTT8=
EXTT9=
EXTT10=
EXTT11=
EXTT12=
EXTT13=
EXTT14=
EXTT15=
EXTT16=
EXTT17=
EXTT18=
EXTT19=
EXTT20=
EXTT21=
PLAYORDER=
